<svg xmlns="http://www.w3.org/2000/svg" viewBox="0 0 512 512" width="512" height="512">
  <defs>
    <radialGradient id="bgGradL" cx="50%" cy="45%" r="55%">
      <stop offset="0%" stop-color="#F5FAF7"/>
      <stop offset="100%" stop-color="#F0F7F4"/>
    </radialGradient>
    <linearGradient id="goldGradL" x1="0%" y1="0%" x2="100%" y2="100%">
      <stop offset="0%" stop-color="#C9A84C"/>
      <stop offset="40%" stop-color="#B8922A"/>
      <stop offset="100%" stop-color="#9A7A22"/>
    </linearGradient>
    <radialGradient id="glowGradL" cx="50%" cy="50%" r="50%">
      <stop offset="0%" stop-color="rgba(184,146,42,0.2)"/>
      <stop offset="100%" stop-color="rgba(184,146,42,0)"/>
    </radialGradient>
    <filter id="shadowL" x="-10%" y="-10%" width="120%" height="120%">
      <feDropShadow dx="0" dy="4" stdDeviation="8" flood-color="#000" flood-opacity="0.1"/>
    </filter>
    <radialGradient id="beadHighlightL" cx="38%" cy="35%" r="40%">
      <stop offset="0%" stop-color="rgba(255,255,255,0.5)"/>
      <stop offset="100%" stop-color="rgba(255,255,255,0)"/>
    </radialGradient>
  </defs>

  <circle cx="256" cy="256" r="248" fill="url(#bgGradL)"/>
  <circle cx="256" cy="256" r="200" fill="none" stroke="#D0E8DC" stroke-width="2" stroke-dasharray="8 12" opacity="0.6"/>
  <circle cx="256" cy="240" r="110" fill="url(#glowGradL)"/>
  <ellipse cx="256" cy="236" rx="68" ry="78" fill="url(#goldGradL)" filter="url(#shadowL)"/>
  <ellipse cx="246" cy="222" rx="42" ry="48" fill="url(#beadHighlightL)"/>
  <ellipse cx="256" cy="236" rx="8" ry="12" fill="none" stroke="#9A7A22" stroke-width="1.5" opacity="0.5"/>
  <line x1="256" y1="148" x2="256" y2="158" stroke="#B8922A" stroke-width="2" stroke-linecap="round" opacity="0.6"/>
  <line x1="256" y1="314" x2="256" y2="324" stroke="#B8922A" stroke-width="2" stroke-linecap="round" opacity="0.6"/>
  <text x="256" y="380" text-anchor="middle" font-family="'Amiri', 'Traditional Arabic', 'Noto Naskh Arabic', serif" font-size="56" font-weight="700" fill="#1B3A2D" letter-spacing="2">
    حَبّة
  </text>
  <circle cx="168" cy="372" r="4" fill="#B8922A" opacity="0.35"/>
  <circle cx="344" cy="372" r="4" fill="#B8922A" opacity="0.35"/>
  <circle cx="152" cy="372" r="3" fill="#B8922A" opacity="0.2"/>
  <circle cx="360" cy="372" r="3" fill="#B8922A" opacity="0.2"/>
</svg>
